<?xml version="1.0" standalone="no"?>
<!DOCTYPE svg PUBLIC "-//W3C//DTD SVG 20010904//EN"
 "http://www.w3.org/TR/2001/REC-SVG-20010904/DTD/svg10.dtd">
<svg version="1.0" xmlns="http://www.w3.org/2000/svg"
 width="1024.000000pt" height="1024.000000pt" viewBox="0 0 1024.000000 1024.000000"
 preserveAspectRatio="xMidYMid meet">

<g transform="translate(0.000000,1024.000000) scale(0.100000,-0.100000)"
fill="#000000" stroke="none">
<path d="M7978 10101 c-112 -31 -153 -54 -238 -136 -65 -62 -102 -140 -122
-255 -25 -142 24 -308 121 -407 51 -52 135 -109 175 -119 58 -14 56 22 56
-829 0 -438 -5 -798 -10 -820 -7 -31 -26 -56 -87 -113 -43 -41 -127 -121 -187
-179 -80 -77 -112 -101 -120 -93 -8 8 -11 163 -11 535 l0 524 53 52 c126 123
136 256 28 385 -54 64 -121 94 -211 94 -80 0 -126 -19 -188 -78 -61 -58 -87
-118 -87 -203 0 -92 17 -126 96 -197 l64 -57 0 -285 c0 -157 -4 -406 -10 -555
-5 -148 -14 -688 -20 -1200 -6 -511 -15 -1144 -20 -1405 -9 -426 -12 -476 -27
-487 -9 -7 -45 -13 -80 -13 -54 0 -64 3 -74 22 -8 14 -17 137 -25 333 -7 170
-16 319 -19 330 -3 11 -9 74 -14 140 -6 66 -15 137 -21 158 -10 34 -14 37 -50
37 -62 0 -191 -34 -330 -86 -138 -51 -208 -63 -450 -74 -124 -6 -322 -18 -440
-26 -118 -8 -305 -19 -415 -24 -110 -6 -224 -14 -254 -20 -30 -5 -95 -10 -144
-10 -49 0 -157 -6 -241 -14 -230 -22 -418 -35 -671 -46 -126 -6 -295 -15 -375
-21 -80 -6 -239 -15 -355 -19 -115 -5 -313 -14 -439 -21 l-230 -13 -316 -210
c-174 -116 -366 -243 -427 -283 -61 -40 -114 -80 -118 -90 -4 -10 -13 -193
-20 -408 -8 -214 -17 -399 -20 -410 -3 -11 -10 -108 -15 -215 -5 -107 -13
-242 -19 -300 -5 -58 -15 -170 -21 -249 -6 -80 -16 -151 -22 -158 -6 -7 -28
-13 -49 -13 -46 0 -44 -7 -59 175 -41 498 -67 875 -80 1160 -5 116 -14 289
-19 385 -6 96 -13 330 -17 520 -3 190 -9 417 -14 505 -5 88 -14 430 -20 760
-13 726 -23 1041 -32 1050 -20 20 -241 -168 -322 -274 -53 -68 -118 -186 -168
-301 -59 -139 -77 -201 -108 -380 -19 -112 -20 -164 -20 -1910 0 -1537 2
-1808 15 -1885 8 -49 15 -102 15 -117 0 -15 5 -39 11 -55 7 -15 22 -56 34 -89
56 -156 190 -283 380 -359 293 -117 520 -154 995 -163 317 -5 774 23 1045 64
55 8 143 19 195 25 52 5 102 12 110 15 8 3 56 12 105 19 129 19 437 81 570
115 101 25 254 63 295 72 25 6 50 14 55 18 6 5 33 11 60 15 28 4 55 11 60 15
10 7 130 45 330 104 79 24 229 75 245 85 9 5 31 12 50 16 19 4 40 11 45 15 6
4 35 15 65 24 48 16 153 55 270 101 19 8 77 30 129 50 52 20 121 49 155 65 34
16 87 40 119 54 247 111 441 208 527 264 14 8 74 41 135 73 60 31 155 84 210
119 55 34 120 74 143 88 24 15 101 69 170 121 70 51 146 106 169 122 23 16 47
35 55 41 7 7 36 31 63 53 28 21 53 44 57 50 4 5 8 748 8 1651 l0 1640 98 96
c53 53 110 108 126 122 222 199 321 291 373 346 l33 35 0 927 c0 509 3 934 6
942 4 9 39 31 79 50 84 39 140 86 190 162 57 85 75 151 75 270 0 90 -3 111
-29 174 -36 88 -71 139 -130 192 -118 104 -293 142 -453 99z m220 -280 c78
-40 125 -111 126 -190 1 -48 -5 -67 -29 -107 -17 -26 -49 -61 -72 -77 -165
-116 -405 75 -327 261 26 63 72 101 164 136 25 9 98 -3 138 -23z m-1892 -5372
c18 -20 19 -40 16 -388 l-3 -366 -25 -22 c-25 -23 -26 -23 -380 -23 -225 0
-362 4 -375 10 -46 25 -49 47 -49 407 0 317 1 340 19 370 15 24 28 32 53 35
18 2 189 2 379 0 336 -2 347 -3 365 -23z m-2462 -1 c14 -19 16 -73 16 -384 l0
-362 -31 -26 -31 -26 -359 0 -360 0 -25 25 -25 25 3 371 c3 353 4 371 22 385
16 11 87 14 397 14 l378 0 15 -22z m1213 0 l23 -21 0 -369 c0 -355 -1 -369
-20 -388 -19 -19 -33 -20 -382 -20 -200 0 -373 3 -385 6 -12 3 -24 14 -27 23
-2 9 -6 182 -8 384 l-3 368 25 19 c24 18 45 20 389 20 361 0 365 0 388 -22z
m-1218 -1214 c20 -26 21 -38 21 -385 l0 -358 -27 -26 -28 -25 -358 0 c-350 0
-360 1 -389 21 l-29 21 3 375 c3 357 4 375 22 389 16 11 86 14 392 14 l373 0
20 -26z m1217 2 l28 -23 -1 -363 0 -364 -29 -23 -29 -23 -347 0 c-305 0 -352
2 -383 17 -19 9 -35 24 -36 32 -5 92 5 730 12 743 12 21 46 23 451 26 l307 2
27 -24z"/>
<path d="M6454 9771 c-101 -34 -138 -57 -201 -124 -67 -71 -99 -136 -119 -245
-15 -83 -15 -94 0 -145 9 -30 16 -62 16 -71 0 -9 14 -46 31 -83 40 -84 133
-177 215 -216 32 -16 66 -32 74 -36 20 -11 28 -121 29 -428 1 -224 2 -243 19
-243 9 0 49 -12 87 -26 39 -14 81 -29 95 -34 25 -8 87 -33 125 -50 61 -27 118
-50 125 -50 12 0 21 150 12 190 -8 35 -17 42 -97 75 -68 27 -109 53 -127 77
-16 21 -17 40 -7 243 9 198 12 222 30 241 11 12 32 24 47 27 36 7 108 56 162
109 163 160 191 378 74 578 -116 199 -365 288 -590 211z m275 -263 c81 -48
114 -102 114 -185 0 -170 -230 -281 -363 -174 -78 62 -107 164 -71 245 27 58
89 122 133 135 49 15 145 5 187 -21z"/>
<path d="M9015 8594 c-157 -31 -289 -129 -354 -264 -36 -75 -36 -75 -36 -210
0 -133 1 -136 34 -205 37 -77 84 -133 146 -173 47 -31 112 -62 129 -62 7 0 20
-6 31 -14 17 -12 18 -35 16 -437 -1 -233 -5 -429 -9 -435 -18 -31 -673 -681
-826 -819 -127 -115 -166 -155 -176 -180 -12 -33 -13 -2035 -1 -2035 17 0 43
29 143 162 175 230 253 363 321 543 72 193 88 277 94 500 5 158 3 192 -16 280
-19 92 -58 206 -110 328 -12 27 -21 51 -21 54 0 2 17 21 38 41 116 112 423
411 598 584 l201 198 7 579 c4 358 11 591 17 610 8 21 19 32 41 36 43 10 126
60 171 103 47 45 97 128 122 202 22 67 27 242 7 262 -6 6 -12 18 -12 26 0 33
-57 129 -110 186 -71 75 -135 111 -241 137 -91 22 -107 22 -204 3z m175 -275
c90 -41 132 -106 133 -205 1 -52 -4 -69 -27 -104 -15 -22 -38 -51 -52 -63 -73
-64 -189 -60 -279 9 -43 32 -85 119 -85 174 0 76 55 151 140 189 57 26 113 26
170 0z"/>
<path d="M5790 7943 c-69 -3 -99 -8 -112 -20 -17 -15 -18 -44 -18 -388 0 -275
-3 -374 -12 -383 -8 -8 -49 -12 -120 -12 -93 0 -109 2 -117 18 -15 28 -22 120
-29 372 l-7 235 -15 -78 c-10 -58 -16 -73 -22 -58 -5 15 -16 21 -37 21 -16 0
-33 5 -36 10 -3 6 -21 10 -38 10 -18 0 -40 7 -51 15 -13 10 -24 11 -37 5 -22
-12 -259 -13 -278 -1 -7 5 -25 4 -42 -3 -23 -8 -34 -7 -51 3 -17 11 -22 11
-29 -1 -5 -7 -9 -16 -9 -20 0 -21 -19 -4 -25 23 -4 17 -10 28 -13 24 -4 -3 -9
-102 -12 -220 -5 -164 -9 -217 -21 -231 -18 -22 -27 -260 -10 -277 9 -9 226
-13 824 -15 772 -2 813 -3 837 -21 l25 -18 3 -526 2 -525 -26 -31 -26 -31
-2034 0 -2034 0 -32 29 -32 28 3 524 2 524 25 25 c22 23 34 25 137 30 l112 5
3 228 c2 196 0 228 -13 233 -19 8 -271 -39 -395 -72 -263 -72 -244 -64 -252
-109 -8 -51 -31 -2465 -23 -2487 5 -13 23 -5 103 47 160 104 289 188 542 350
143 91 122 85 281 86 79 0 171 5 204 10 33 5 179 13 325 19 146 5 328 14 405
19 77 6 214 13 305 17 91 3 199 7 240 9 143 6 405 26 473 35 37 6 104 10 150
10 45 1 127 5 182 11 95 9 373 27 735 49 91 6 237 15 325 21 88 5 261 14 385
18 228 8 265 14 400 58 41 13 93 29 115 35 22 6 46 18 53 26 15 20 16 196 0
302 -6 46 -13 413 -17 938 l-6 863 -80 42 c-186 98 -381 162 -540 178 -55 5
-136 14 -181 19 -76 10 -151 10 -364 3z"/>
<path d="M4360 7764 c0 -10 -5 -36 -11 -57 -10 -36 -12 -38 -28 -23 -10 9 -20
13 -24 10 -3 -3 -29 -8 -57 -11 -36 -3 -58 0 -75 11 -31 20 -69 21 -85 1 -18
-22 -177 -21 -201 1 -17 15 -22 15 -74 -2 -33 -10 -60 -13 -63 -8 -20 27 -30
4 -45 -99 -9 -62 -17 -169 -17 -238 0 -79 -6 -146 -15 -182 -8 -32 -15 -85
-15 -117 0 -50 3 -61 20 -70 14 -8 130 -11 361 -9 292 2 343 4 356 17 13 14
14 38 9 166 -4 83 -10 255 -14 383 -4 128 -11 235 -15 239 -4 4 -7 -1 -7 -12z"/>
<path d="M3392 7613 c-1 -12 -7 -44 -14 -72 -12 -55 -28 -63 -60 -34 -17 15
-46 17 -249 16 -202 -1 -232 -3 -249 -18 -19 -18 -71 -14 -97 7 -9 7 -14 6
-17 -3 -17 -53 -47 -511 -35 -524 13 -13 363 -18 579 -8 l165 8 -3 130 c-5
190 -19 524 -20 498z"/>
<path d="M6345 2099 c-10 -15 3 -25 16 -12 7 7 7 13 1 17 -6 3 -14 1 -17 -5z"/>
<path d="M6276 2073 c-11 -11 -6 -23 8 -23 8 0 17 4 20 9 7 10 -19 23 -28 14z"/>
<path d="M6207 2043 c-11 -3 -16 -11 -13 -19 4 -11 -5 -14 -43 -14 -34 0 -51
-5 -55 -15 -3 -9 -18 -15 -35 -15 -16 0 -31 -6 -35 -15 -3 -9 -19 -15 -41 -15
-20 0 -43 -7 -51 -15 -9 -8 -25 -15 -37 -15 -12 0 -31 -7 -41 -15 -11 -8 -32
-15 -47 -15 -15 0 -29 -7 -33 -15 -3 -9 -18 -15 -34 -15 -16 0 -35 -7 -42 -15
-7 -8 -24 -15 -39 -15 -15 0 -35 -6 -46 -14 -11 -7 -37 -16 -57 -20 -21 -4
-38 -11 -38 -15 0 -5 -17 -11 -39 -15 -21 -3 -51 -13 -67 -21 -16 -8 -39 -15
-51 -15 -12 0 -24 -4 -27 -9 -3 -4 -23 -11 -44 -15 -22 -3 -52 -13 -68 -21
-16 -8 -39 -15 -51 -15 -12 0 -24 -4 -27 -9 -4 -5 -25 -12 -49 -16 -23 -4 -51
-12 -62 -18 -11 -6 -38 -14 -60 -17 -22 -4 -76 -17 -120 -30 -92 -26 -180 -47
-247 -60 -26 -5 -55 -13 -65 -18 -10 -5 -45 -13 -78 -17 -33 -4 -64 -11 -70
-15 -5 -4 -37 -13 -70 -19 -117 -21 -219 -41 -254 -51 -20 -5 -53 -10 -75 -10
-21 0 -64 -6 -95 -14 -31 -8 -117 -22 -191 -31 -74 -9 -164 -21 -200 -26 -36
-5 -123 -14 -195 -19 -71 -6 -155 -15 -185 -21 -100 -20 -759 -23 -995 -4
-277 21 -373 31 -415 44 -19 6 -53 11 -76 11 -23 0 -61 7 -84 15 -23 8 -57 15
-74 15 -17 1 -49 7 -71 15 -55 20 -125 30 -125 17 0 -5 19 -22 43 -38 23 -16
44 -32 45 -36 2 -5 8 -8 12 -8 5 0 28 -13 52 -29 116 -78 371 -188 558 -241
41 -11 104 -30 140 -42 102 -32 253 -66 390 -87 203 -32 286 -41 361 -41 46 0
158 -7 249 -15 91 -8 231 -15 311 -15 118 0 149 -3 159 -15 7 -8 17 -15 22
-15 5 0 48 -18 96 -41 87 -41 185 -87 297 -139 33 -15 77 -33 98 -40 22 -7 51
-18 65 -26 15 -8 35 -14 45 -14 9 0 25 -4 35 -9 35 -18 128 -51 142 -51 9 0
24 -6 35 -13 11 -7 67 -28 125 -46 58 -18 120 -39 138 -47 18 -8 40 -14 50
-14 9 0 28 -6 42 -13 14 -7 66 -23 115 -36 50 -12 113 -28 140 -36 89 -23 189
-45 233 -51 23 -4 45 -11 48 -15 3 -5 25 -9 48 -9 24 0 59 -6 78 -14 33 -14
36 -14 59 9 13 13 29 30 34 37 68 88 122 155 132 166 7 7 34 41 59 75 26 34
52 67 58 72 6 6 24 29 40 52 16 24 38 53 50 65 12 13 33 39 46 58 13 19 27 37
30 40 3 3 52 66 109 140 58 74 108 137 113 138 8 4 12 42 4 42 -3 0 -69 -14
-148 -31 -79 -17 -170 -34 -203 -39 -33 -5 -85 -13 -115 -19 -172 -32 -423
-51 -672 -51 -167 0 -259 4 -263 10 -12 20 17 40 56 40 21 0 50 5 64 10 15 6
59 15 99 20 39 5 100 16 136 24 229 54 310 75 335 86 11 5 40 12 65 16 25 3
48 11 51 16 3 5 28 13 55 18 66 12 132 30 171 46 17 8 40 14 51 14 11 0 25 7
32 15 7 8 24 15 39 15 14 0 35 7 45 15 11 8 32 15 46 15 14 0 35 7 46 15 10 8
26 15 34 15 8 0 33 9 55 20 22 11 46 19 53 20 7 0 20 7 28 15 9 8 26 15 38 15
13 0 29 7 36 15 7 8 25 15 40 15 16 0 30 7 34 15 3 8 17 15 31 15 14 0 28 7
31 15 4 9 19 15 40 15 40 0 46 21 12 38 -22 10 -22 11 -2 11 11 1 24 -3 30 -8
13 -13 64 -1 64 15 0 8 -10 14 -25 14 -14 0 -25 5 -25 10 0 6 9 10 19 10 11 0
23 -4 26 -10 3 -5 19 -10 36 -10 16 0 29 5 29 10 0 6 -13 10 -29 10 -16 0 -31
6 -35 15 -3 8 -17 15 -31 15 -27 0 -34 17 -10 26 20 8 19 20 -4 43 -12 12 -17
29 -15 50 3 22 -1 31 -11 31 -10 0 -15 10 -15 29 0 16 -7 34 -15 41 -8 7 -15
20 -15 29 -1 24 -65 89 -92 93 -15 2 -22 9 -22 21 1 10 -5 17 -16 17 -10 0
-20 5 -22 11 -2 6 -21 14 -43 19 -22 4 -47 10 -55 13 -8 2 -23 3 -33 0z"/>
<path d="M6848 1663 c7 -3 16 -2 19 1 4 3 -2 6 -13 5 -11 0 -14 -3 -6 -6z"/>
<path d="M6788 1633 c7 -3 16 -2 19 1 4 3 -2 6 -13 5 -11 0 -14 -3 -6 -6z"/>
<path d="M6705 1610 c-3 -5 3 -10 14 -10 12 0 21 5 21 10 0 6 -6 10 -14 10 -8
0 -18 -4 -21 -10z"/>
</g>
</svg>
